<?xml version="1.0" encoding="utf-8"?>
<!-- Generator: Adobe Illustrator 25.4.1, SVG Export Plug-In . SVG Version: 6.00 Build 0)  -->
<svg version="1.1" id="Capa_1" xmlns="http://www.w3.org/2000/svg" xmlns:xlink="http://www.w3.org/1999/xlink" x="0px" y="0px"
	 viewBox="0 0 100 100" style="enable-background:new 0 0 100 100;" xml:space="preserve">
<style type="text/css">
	.st0{fill:#1293D3;}
	.st1{fill:#E8E9E8;}
</style>
<path class="st0" d="M50.2,2.6v7.2c22.2,0.1,40.1,18.1,40.1,40.3c0,22.2-18,40.3-40.3,40.3c-16.9,0-31.4-10.4-37.3-25.2L6,67.8
	c7,17.4,24.1,29.8,44.1,29.8c26.2,0,47.5-21.3,47.5-47.5C97.5,23.9,76.4,2.7,50.2,2.6z"/>
<path class="st1" d="M9.8,50.1c0-22.2,18-40.3,40.3-40.3c0.1,0,0.1,0,0.2,0V2.6c-0.1,0-0.1,0-0.2,0C23.8,2.6,2.6,23.9,2.6,50.1
	c0,6.3,1.2,12.2,3.4,17.7l6.7-2.7C10.8,60.5,9.8,55.4,9.8,50.1z"/>
</svg>
