<?xml version="1.0" encoding="utf-8"?>
<!-- Generator: Adobe Illustrator 25.4.1, SVG Export Plug-In . SVG Version: 6.00 Build 0)  -->
<svg version="1.1" id="Capa_1" xmlns="http://www.w3.org/2000/svg" xmlns:xlink="http://www.w3.org/1999/xlink" x="0px" y="0px"
	 viewBox="0 0 100 100" style="enable-background:new 0 0 100 100;" xml:space="preserve">
<style type="text/css">
	.st0{fill:#0D82C6;}
	.st1{fill:#E8E9E8;}
</style>
<g>
	<path class="st0" d="M55.2,60.4c-1.7-0.2-2.1-5.1,0.1-6.4c2.2-1.3,7.3-20.9-5.2-20.9l0,0c0,0,0,0,0,0s0,0,0,0l0,0
		c-12.5,0-7.4,19.6-5.2,20.9c2.2,1.3,1.8,6.3,0.1,6.4c-11.6,1.1-11.4,6.8-11.4,6.8h16.5h0h16.5C66.5,67.1,66.7,61.5,55.2,60.4z"/>
	<g>
		<path class="st1" d="M50.1,96C24.7,96,4.2,75.4,4.2,50.1S24.7,4.2,50.1,4.2S96,24.8,96,50.1S75.4,96,50.1,96z M50.1,6.2
			C25.8,6.2,6.2,25.9,6.2,50.1S25.8,94,50.1,94S94,74.3,94,50.1S74.3,6.2,50.1,6.2z"/>
	</g>
</g>
</svg>
